<svg xmlns="http://www.w3.org/2000/svg" xmlns:xlink="http://www.w3.org/1999/xlink" width="385.48" height="27.051" viewBox="0 0 385.48 27.051">
  <defs>
    <clipPath id="clip-path">
      <rect id="Rectangle_7948" data-name="Rectangle 7948" width="385.48" height="27.051" fill="#fcfcf9"/>
    </clipPath>
  </defs>
  <g id="Modern_Classics" data-name="Modern Classics" transform="translate(0 0)">
    <g id="Group_4802" data-name="Group 4802" transform="translate(0 0)" clip-path="url(#clip-path)">
      <path id="Path_20148" data-name="Path 20148" d="M230.3,25.1c-1.239-1.881-2.8-4.257-3.4-5.172-.127-.194-.2-.309-.255-.377l.005,0c-.106-.17-.215-.342-.326-.511a10.477,10.477,0,0,0-3.991-3.754,12.139,12.139,0,0,0,1.224-.249,6.946,6.946,0,0,0,5.153-6.8,6.945,6.945,0,0,0-5.155-6.8,28.673,28.673,0,0,0-6.3-.562l-.112,0c-2.688,0-5.469,0-8.189.032l-.4.006V2.14l.354.046c.952.126,1.126.524,1.263,1.023.063,6.993.066,14.169.011,21.284-.145.607-.3.985-1.274,1.113l-.354.047v1.282H215.7V25.655l-.354-.046c-1.094-.144-1.245-.622-1.263-.96-.012-1.112-.016-4.075-.013-9.056.294,0,.867,0,2.111,0,3.068,0,5.478,3.311,6.143,4.325.463.706,1.2,1.938,1.972,3.242l.033.056c.749,1.259,1.524,2.561,2.139,3.529l.12.19h5.169V25.655l-.354-.046a1.524,1.524,0,0,1-1.11-.511M214.088,2.5c.843-.019,2.011-.019,2.73-.019a10.766,10.766,0,0,1,4.919.889,5.67,5.67,0,0,1,0,9.71,10.758,10.758,0,0,1-4.918.889c-.4,0-1.619,0-2.742,0,0-1.412.011-9.749.012-11.465" transform="translate(-90.464 -0.372)" fill="#fcfcf9"/>
      <path id="Path_20149" data-name="Path 20149" d="M27.137.9C26.6.892,26.051.889,25.5.889s-1.081,0-1.613.014L23.62.908,15.051,21.062,5.976.9H.518V2.466L.9,2.494c1.174.084,1.686.665,1.66,1.884L2.3,23.719A1.794,1.794,0,0,1,.378,25.65L0,25.678V26.95H6.088V25.657l-.4-.008c-1.207-.025-1.769-.635-1.769-1.914l.264-17.46L12.1,23.731c.118.27.241.538.37.823.237.523.481,1.063.692,1.59l.1.257h1.328l1.135-2.837L23.493,5.3c.024,6.407.021,12.886-.008,19.274-.168.558-.294.926-1.3,1.082l-.346.053V26.95H28.99V25.708l-.344-.054c-1.1-.174-1.255-.636-1.273-.958-.032-7.069-.033-13.98,0-21.1A1.534,1.534,0,0,1,28.646,2.2l.344-.054V.9h-.408c-.445,0-.915,0-1.446-.007" transform="translate(0 -0.386)" fill="#fcfcf9"/>
      <path id="Path_20150" data-name="Path 20150" d="M71.985.057h-.069A13.1,13.1,0,0,0,58.41,13.566a13.065,13.065,0,0,0,13.507,13.51h.134c7.837-.069,13.311-5.624,13.311-13.509C85.362,5.738,79.736.057,71.985.057M64.463,21.688a15.762,15.762,0,0,1-2.1-8.057c0-5.513,2.519-11.949,9.62-11.949,6.886,0,9.329,6.436,9.329,11.949a15.7,15.7,0,0,1-2.443,8.684c-1.54,2.072-3.773,3.1-6.825,3.135h-.131a8.535,8.535,0,0,1-7.449-3.763" transform="translate(-25.337 -0.025)" fill="#fcfcf9"/>
      <path id="Path_20151" data-name="Path 20151" d="M127.74,1.4a27.948,27.948,0,0,0-7-.6l-5.786.065H113.22V2.2l.375.031c1.274.1,1.274.336,1.274.855v20.9c0,1.028-.05,1.452-1.3,1.634l-.349.05v1.247h.408c.449,0,.945,0,1.457-.007h.17c.493,0,1-.006,1.49-.006.528,0,1.038,0,1.5.015.91.019,1.985.039,3.11.039a31.907,31.907,0,0,0,7.294-.571c3.884-1.066,8.05-4.864,8.1-12.329,0-6.316-3.45-11.165-9-12.654m-9.015,24.02V2.376c.676-.025,1.616-.053,2.594-.053a19.406,19.406,0,0,1,5.35.533c3.674,1.169,5.95,5.175,6.089,10.719.135,5.162-1.772,9.524-4.859,11.111-.95.492-3.428.763-6.978.763-.867,0-1.631-.017-2.183-.033Z" transform="translate(-49.112 -0.347)" fill="#fcfcf9"/>
      <path id="Path_20152" data-name="Path 20152" d="M357.125,19.635a8.509,8.509,0,0,1-7.95,5.687q-.295.013-.584.013a7.715,7.715,0,0,1-7.226-4.043,15.753,15.753,0,0,1-1.727-7.939c.087-2.691,1.008-11.483,9.2-11.638a8.191,8.191,0,0,1,3.092.458,6.948,6.948,0,0,1,4.28,4.29l.083.3h1.476l-.9-4.99-.189-.089A16.792,16.792,0,0,0,348.926.057c-2.443.055-5.9.563-8.465,2.679a14.259,14.259,0,0,0-4.808,11.088,13.809,13.809,0,0,0,3.474,9.66,11.409,11.409,0,0,0,8.574,3.464h0l.267,0a20.192,20.192,0,0,0,9.378-2.089l.17-.093,1-5.4h-1.292Z" transform="translate(-145.599 -0.025)" fill="#fcfcf9"/>
      <path id="Path_20153" data-name="Path 20153" d="M404.282,22.1c-.955,2.69-2.615,3.285-9.352,3.351-.412,0-2.414.018-3.456.027l-.429,0-.021-.79c-.065-7.121-.065-14.341,0-21.45.016-.256.172-.873,1.274-1.046l.344-.054V.9l-.4-.006c-.972-.016-2.075-.024-3.177-.024s-2.2.007-3.177.024l-.4.006V2.138l.344.054c.971.153,1.137.524,1.273,1.024.063,6.976.066,14.163.012,21.312-.149.594-.31.965-1.286,1.119l-.344.054v1.238l.4,0q1.7.015,3.4.014c.379,0,5.178-.014,5.77-.014H404.9l1.038-5.118h-1.563Z" transform="translate(-167.215 -0.378)" fill="#fcfcf9"/>
      <path id="Path_20154" data-name="Path 20154" d="M495.242,9.817c-3.215-.9-4.715-2.268-4.588-4.17a3.831,3.831,0,0,1,1.2-2.641,6.135,6.135,0,0,1,4.175-1.383l.167,0a7.66,7.66,0,0,1,6.957,5.166l.082.3h1.488l-1.075-5.445-.188-.087A15.88,15.88,0,0,0,496.167,0a11.1,11.1,0,0,0-6.279,1.722,6.169,6.169,0,0,0-2.8,5.366c.09,2.4,1.262,4.1,3.691,5.333a27.188,27.188,0,0,0,4.12,1.448c.544.159,1.08.317,1.59.48,2.783.918,5.961,2.4,5.834,5.741-.163,3.779-3.375,5.184-6.325,5.239h-.063a8.356,8.356,0,0,1-7.79-6.04l-.092-.334L486.7,19.1l.474,5.4.182.105a18.289,18.289,0,0,0,8.843,2.322h0a12.4,12.4,0,0,0,7.059-2.084,7.061,7.061,0,0,0,3.047-6.133c-.177-5.982-7.263-7.872-11.069-8.887" transform="translate(-211.12 0)" fill="#fcfcf9"/>
      <path id="Path_20155" data-name="Path 20155" d="M539.755,9.817c-3.215-.9-4.715-2.268-4.588-4.17a3.831,3.831,0,0,1,1.2-2.641,6.135,6.135,0,0,1,4.175-1.383l.167,0a7.66,7.66,0,0,1,6.957,5.166l.082.3h1.488l-1.075-5.445-.188-.087A15.879,15.879,0,0,0,540.68,0,11.1,11.1,0,0,0,534.4,1.722a6.169,6.169,0,0,0-2.8,5.366c.09,2.4,1.261,4.1,3.691,5.333a27.2,27.2,0,0,0,4.12,1.448c.544.159,1.08.317,1.59.48,2.783.918,5.961,2.4,5.834,5.741-.163,3.779-3.375,5.184-6.325,5.239h-.063a8.356,8.356,0,0,1-7.79-6.04l-.092-.334-1.357.142.474,5.4.182.105a18.289,18.289,0,0,0,8.843,2.322h0a12.4,12.4,0,0,0,7.059-2.084,7.061,7.061,0,0,0,3.047-6.133c-.177-5.982-7.263-7.872-11.069-8.887" transform="translate(-230.429 0)" fill="#fcfcf9"/>
      <path id="Path_20156" data-name="Path 20156" d="M578.735.872c-1.1,0-2.2.008-3.177.024l-.4.007V2.138l.345.054c.97.153,1.136.524,1.273,1.024.063,6.975.065,14.161.012,21.31-.149.595-.31.967-1.285,1.121l-.345.054v1.242h7.156V25.7l-.345-.054c-1.1-.174-1.254-.636-1.272-.959-.066-7.116-.066-14.337,0-21.45.015-.257.172-.873,1.273-1.046l.345-.054V.9l-.4-.007c-.972-.016-2.075-.024-3.177-.024" transform="translate(-249.491 -0.378)" fill="#fcfcf9"/>
      <path id="Path_20157" data-name="Path 20157" d="M617.57,19.635a8.509,8.509,0,0,1-7.949,5.687c-.2.008-.391.013-.584.013a7.718,7.718,0,0,1-7.227-4.042,15.77,15.77,0,0,1-1.727-7.94c.088-2.691,1.01-11.483,9.2-11.638a8.2,8.2,0,0,1,3.092.458,6.95,6.95,0,0,1,4.279,4.29l.084.3h1.476l-.9-4.99-.189-.089A16.793,16.793,0,0,0,609.372.057c-2.444.055-5.9.563-8.464,2.679A14.258,14.258,0,0,0,596.1,13.825a13.809,13.809,0,0,0,3.475,9.66,11.411,11.411,0,0,0,8.574,3.464h0l.266,0a20.2,20.2,0,0,0,9.378-2.088l.17-.093,1-5.4H617.67Z" transform="translate(-258.574 -0.025)" fill="#fcfcf9"/>
      <path id="Path_20158" data-name="Path 20158" d="M654.7,9.817c-3.216-.9-4.716-2.268-4.589-4.17A3.831,3.831,0,0,1,651.3,3.006a6.138,6.138,0,0,1,4.176-1.383l.167,0A7.661,7.661,0,0,1,662.6,6.791l.082.3h1.486L663.1,1.647l-.189-.087A15.878,15.878,0,0,0,655.622,0a11.1,11.1,0,0,0-6.28,1.722,6.169,6.169,0,0,0-2.8,5.366c.089,2.4,1.262,4.1,3.691,5.333a27.182,27.182,0,0,0,4.121,1.448c.544.159,1.08.317,1.589.48,2.783.918,5.961,2.4,5.835,5.741-.164,3.78-3.375,5.184-6.325,5.239h-.063a8.354,8.354,0,0,1-7.788-6.04l-.092-.334-1.358.142.474,5.4.182.105a18.291,18.291,0,0,0,8.844,2.322h0a12.407,12.407,0,0,0,7.059-2.084,7.067,7.067,0,0,0,3.047-6.133c-.177-5.982-7.264-7.873-11.068-8.887" transform="translate(-280.288 0)" fill="#fcfcf9"/>
      <path id="Path_20159" data-name="Path 20159" d="M181.89,22.006c-.943,2.659-2.692,3.285-9.352,3.351-.571,0-1.089.007-1.644.015-.48.007-.944.014-1.425.014-.38,0-.77,0-1.187-.016-.021-1.663-.028-5.08-.019-10.694l5.14-.017a2.276,2.276,0,0,1,2.175,1.81l.067.326h1.223l.038-5.959h-1.282l-.05.351a2.206,2.206,0,0,1-2.186,1.978l-5.121.018c0-1.374.02-9.237.023-10.865.518-.017.989-.023,1.454-.023.66,0,1.311.013,2.077.028l.488.01c5.689.062,8.179.736,8.881,2.4l.121.289,1.471-.2L181.784.805h-9.537c-.816,0-1.524-.008-2.225-.016h-.13c-.646-.007-1.291-.015-2.016-.015l-3.392.032h-1.734V2.139l.375.031c1.274.1,1.274.336,1.274.855v20.9c0,.973-.055,1.449-1.3,1.634l-.348.052v1.246h19.762l1.038-5.118h-1.563Z" transform="translate(-70.597 -0.336)" fill="#fcfcf9"/>
      <path id="Path_20160" data-name="Path 20160" d="M454.709,23.527,444.647.771h-1.656l-10.763,22.64a2.831,2.831,0,0,1-2.5,2.106h-.408v1.3h6.961v-1.3h-.407a2.428,2.428,0,0,1-1.927-.689,1.046,1.046,0,0,1,.065-1.027l2.1-4.5h12.554l1.9,4.419a1.649,1.649,0,0,1,.1,1.431,1.2,1.2,0,0,1-1.049.367h-.408v1.3h8.094V25.525l-.4-.007c-1.329-.025-1.712-.893-2.2-1.99m-17.89-5.736,5.832-12.479,5.369,12.479Z" transform="translate(-186.23 -0.335)" fill="#fcfcf9"/>
      <path id="Path_20161" data-name="Path 20161" d="M277.1,2.207l.4.009a1.766,1.766,0,0,1,1.341.493,2.027,2.027,0,0,1,.4,1.422l-.213,16.331C273.968,14,268.941,7.562,263.884,1.071l-.123-.157h-5.62V2.478l.378.027c1.174.084,1.686.665,1.66,1.884l-.259,19.34a1.748,1.748,0,0,1-1.854,1.931l-.378.028v1.273h6.152V25.669l-.4-.009A2.01,2.01,0,0,1,262,25.151a1.866,1.866,0,0,1-.46-1.406l.267-19.049q6.176,7.9,12.331,15.808l5.007,6.426h1.376l.362-22.793c0-1.2.617-1.829,1.887-1.922l.378-.028V.914H277.1Z" transform="translate(-111.779 -0.397)" fill="#fcfcf9"/>
    </g>
  </g>
</svg>
